# xmcd
#
# Track frame offsets:
#	180
#	12087
#	24184
#	35727
#	47521
#	59534
#	71602
#	83954
#	94274
#	106683
#	118639
#	130515
#	142726
#	154810
#	167331
#	179301
#	192838
#	205948
#	219423
#	233151
#
# Disc length: 3271 seconds
#
# Revision: 3
# Processed by: cddbd v1.5.2PL0 Copyright (c) Steve Scherf et al.
# Submitted via: dBpowerAMP V12.0
#
DISCID=000cc514
DTITLE=Various Artist - Legends of Blues [CD3)
DYEAR=2005
DGENRE=Blues
TTITLE0=Lowell Fulson - River Blues Part 1
TTITLE1=Sonny Terry - Whoopin' the Blues
TTITLE2=Brownie McGhee - My Barkin' Bulldog Blues
TTITLE3=Lonnie Johnson - Working Man Blues
TTITLE4=Big Joe Williams - Peach Orchad Mama
TTITLE5=Lightning Hopkins - Rollin' and Rollin'
TTITLE6=Brother George and His Sanctified Singers - Precious Lord
TTITLE7=Lowell Fulson - San Francisco Blues
TTITLE8=Blind Boy Fuller - Somebody's Been Talking
TTITLE9=John Lee 'sonny Boy' Williamson - New Early in the Morning
TTITLE10=Big Joe Turner - Playboy Blues
TTITLE11=Brownie McGhee - Picking My Tomatoes
TTITLE12=T-Bone Walker - No Worry Blues
TTITLE13=Big Joe Williams - Please Don't Go
TTITLE14=Brother George and His Sanctified Singers - Twelve Gates to the City
TTITLE15=Leadbelly - New York City
TTITLE16=Arthur Big Boy Crudup - Rock Me, Mama
TTITLE17=Dr Clayton - Pearl Harbour Blues
TTITLE18=Muddy Waters - Take A Walk With Me
TTITLE19=John Lee 'sonny Boy' Williamson - My Black Name Blues
EXTD=
EXTT0=
EXTT1=
EXTT2=
EXTT3=
EXTT4=
EXTT5=
EXTT6=
EXTT7=
EXTT8=
EXTT9=
EXTT10=
EXTT11=
EXTT12=
EXTT13=
EXTT14=
EXTT15=
EXTT16=
EXTT17=
EXTT18=
EXTT19=
PLAYORDER=
